<?xml version="1.0" standalone="no"?>
<!DOCTYPE svg PUBLIC "-//W3C//DTD SVG 20010904//EN"
 "http://www.w3.org/TR/2001/REC-SVG-20010904/DTD/svg10.dtd">
<svg version="1.0" xmlns="http://www.w3.org/2000/svg"
  width="452" height="63"   viewBox="0 0 900.000000 255.000000"
 preserveAspectRatio="xMidYMid meet">
<metadata>
Created by potrace 1.10, written by Peter Selinger 2001-2011
</metadata>
<g transform="translate(0.000000,255.000000) scale(0.100000,-0.100000)"
fill="#30d0f8" stroke="none">
<path d="M5516 2054 c-9 -8 -16 -20 -16 -25 0 -6 -7 -17 -15 -25 -21 -21 -19
-54 3 -54 26 0 106 85 99 104 -8 21 -51 21 -71 0z"/>
<path d="M6868 2063 c-38 -6 -78 -56 -78 -98 0 -34 -15 -56 -51 -76 -27 -14
-19 -33 17 -39 l29 -5 -3 -105 c-1 -58 -5 -121 -8 -141 -7 -48 24 -91 51 -69
14 12 16 33 14 164 l-3 151 45 5 c39 4 44 8 44 30 0 22 -5 25 -40 28 -52 4
-58 11 -44 51 12 35 49 56 81 45 23 -7 48 12 48 36 0 12 -11 20 -31 24 -17 3
-34 5 -38 5 -3 -1 -18 -4 -33 -6z"/>
<path d="M2190 2043 c-119 -40 -134 -49 -175 -99 -27 -33 -44 -65 -48 -91 -10
-61 -27 -70 -90 -48 -74 27 -388 28 -492 1 -164 -41 -311 -94 -346 -123 -8 -7
-19 -13 -23 -13 -21 0 -165 -122 -212 -179 -58 -70 -79 -109 -114 -211 -29
-85 -33 -289 -7 -360 9 -25 17 -51 17 -58 0 -27 44 -109 95 -177 67 -90 87
-110 165 -171 151 -118 288 -187 478 -240 36 -11 62 -23 62 -31 0 -19 -13 -22
-105 -25 -75 -3 -80 -4 -83 -26 -6 -43 15 -55 87 -48 35 4 72 11 81 16 10 5
69 11 131 12 111 3 114 4 117 26 4 24 -22 62 -41 62 -17 0 -97 70 -230 203
-131 130 -157 145 -157 89 0 -23 17 -42 109 -117 93 -76 131 -117 131 -140 0
-11 -26 -3 -84 24 -33 16 -97 43 -141 62 -44 18 -87 37 -95 43 -8 6 -33 20
-55 31 -134 67 -254 166 -334 274 -86 117 -116 207 -114 346 3 204 80 345 265
483 56 43 183 112 204 112 7 0 25 7 40 15 16 8 40 15 54 15 14 1 36 7 50 15
14 8 41 15 60 15 19 0 62 7 95 15 81 20 218 19 345 -2 58 -9 106 -18 108 -19
2 -1 9 -31 17 -67 17 -82 49 -133 141 -225 77 -75 229 -182 261 -182 10 0 32
-7 48 -16 20 -10 44 -14 70 -10 89 12 129 52 130 131 0 45 -5 58 -43 108 -23
31 -71 79 -107 106 -91 68 -303 172 -385 187 -68 13 -70 15 -70 37 0 45 64
118 135 155 46 24 60 26 175 26 99 1 132 -3 159 -17 19 -9 40 -17 47 -17 27 0
100 -45 135 -83 61 -67 109 -31 49 36 -108 124 -363 198 -510 150z m-56 -380
c99 -38 185 -81 261 -129 68 -43 165 -138 165 -161 0 -11 -12 -30 -26 -44 -22
-21 -35 -24 -92 -23 -77 1 -118 19 -224 97 -73 53 -188 171 -188 193 0 8 -4
14 -9 14 -5 0 -15 16 -21 35 -9 27 -9 39 0 50 13 15 10 16 134 -32z"/>
<path d="M3028 2032 c-65 -1 -119 -6 -119 -10 -1 -4 -3 -111 -4 -239 -2 -168
0 -235 9 -242 6 -5 67 -11 135 -12 97 -2 125 1 132 12 12 19 11 25 -6 39 -11
9 -38 11 -98 7 -45 -4 -88 -3 -96 2 -9 6 -14 33 -15 87 l-1 79 103 3 102 3 0
29 0 30 -99 0 c-111 0 -111 0 -111 74 0 70 14 80 105 73 91 -7 128 3 123 34
-4 30 -26 34 -160 31z"/>
<path d="M4870 1961 c-11 -23 -30 -51 -40 -61 -25 -25 -25 -37 0 -45 11 -3 20
-12 21 -18 0 -7 0 -60 -1 -120 -1 -118 10 -151 60 -181 40 -23 97 -21 110 4
16 29 4 40 -40 40 -60 0 -70 22 -70 157 l0 112 53 3 c48 3 52 5 52 28 0 23 -5
25 -50 30 -49 5 -50 6 -52 39 -2 54 -19 59 -43 12z"/>
<path d="M5963 1988 c-6 -7 -14 -24 -18 -38 -4 -14 -18 -35 -31 -47 -29 -27
-30 -43 -4 -50 19 -5 20 -14 20 -125 0 -129 9 -162 54 -192 37 -23 102 -21
116 4 16 29 4 40 -40 40 -60 0 -70 22 -70 157 0 83 3 113 13 114 6 0 30 1 52
2 36 2 40 5 40 27 0 23 -5 25 -50 30 -49 5 -50 6 -52 39 -2 40 -15 57 -30 39z"/>
<path d="M3419 1911 c-14 -5 -38 -17 -54 -27 -16 -10 -30 -14 -32 -9 -9 26
-22 37 -37 32 -24 -9 -24 -358 0 -377 12 -11 18 -10 31 3 14 13 16 35 14 116
-4 170 13 203 105 205 37 1 50 -4 66 -24 17 -22 19 -38 18 -145 -1 -66 -2
-127 -1 -136 1 -20 25 -31 46 -23 23 9 22 269 -1 317 -26 54 -98 85 -155 68z"/>
<path d="M3811 1909 c-80 -17 -131 -89 -131 -185 0 -129 65 -204 177 -204 56
0 100 27 90 55 -6 14 -16 16 -72 10 -65 -7 -65 -7 -101 29 l-36 36 4 76 c3 69
6 78 33 101 25 22 36 25 84 21 70 -6 81 -2 81 28 0 14 -6 26 -12 28 -31 10
-86 12 -117 5z"/>
<path d="M4135 1911 c-42 -13 -81 -40 -105 -73 -22 -29 -25 -43 -25 -119 0
-78 2 -89 28 -122 33 -43 93 -77 137 -77 35 0 97 29 122 57 24 26 48 98 48
144 0 43 -25 115 -49 138 -44 43 -113 66 -156 52z m82 -66 c35 -10 63 -65 63
-124 0 -90 -42 -141 -115 -141 -33 0 -47 6 -70 30 -27 28 -29 36 -29 110 0 89
13 113 68 129 31 9 41 8 83 -4z"/>
<path d="M4580 1913 c-8 -3 -28 -15 -43 -26 l-28 -19 -24 22 c-14 13 -31 20
-40 16 -13 -5 -15 -30 -13 -187 3 -159 5 -183 20 -193 34 -21 42 6 43 144 0
125 1 130 25 154 24 23 59 31 117 27 43 -2 56 -51 50 -180 -6 -116 1 -151 28
-151 26 0 32 32 28 154 -5 168 -8 181 -46 210 -33 24 -91 39 -117 29z"/>
<path d="M5200 1888 c-28 -19 -45 -27 -48 -19 -6 19 -34 42 -46 38 -7 -2 -12
-61 -14 -185 -2 -176 -2 -181 19 -192 36 -20 42 0 40 130 l-2 121 34 34 c28
28 43 35 75 35 33 0 41 4 46 23 6 24 -15 47 -44 47 -10 0 -37 -14 -60 -32z"/>
<path d="M7545 1911 c-11 -5 -32 -21 -47 -36 -20 -20 -29 -24 -32 -14 -2 8 -7
22 -10 32 -6 19 -31 23 -42 6 -3 -6 -7 -90 -8 -186 -1 -160 0 -176 17 -185 13
-6 23 -6 33 3 12 10 14 35 13 123 -3 117 4 144 45 178 12 9 38 17 58 18 32 0
39 4 44 26 10 39 -23 54 -71 35z"/>
<path d="M8065 1912 c-11 -2 -34 -15 -52 -28 -40 -30 -54 -30 -83 1 -31 34
-107 35 -150 3 l-29 -21 -20 24 c-10 13 -23 20 -28 16 -4 -5 -10 -84 -13 -175
-4 -129 -2 -172 8 -190 12 -21 16 -22 34 -10 20 13 21 24 22 145 1 112 4 134
19 151 38 42 128 36 143 -10 8 -25 6 -199 -2 -234 -7 -28 26 -67 49 -59 15 6
17 23 17 134 0 143 14 183 66 194 36 7 80 -1 93 -17 6 -7 12 -77 13 -156 3
-122 5 -144 20 -154 36 -22 42 5 39 166 -2 152 -2 153 -30 181 -28 29 -80 46
-116 39z"/>
<path d="M5418 1894 c-35 -18 -38 -54 -5 -54 12 0 39 5 61 11 51 14 82 5 101
-31 25 -49 20 -60 -28 -60 -53 0 -145 -26 -170 -48 -25 -22 -35 -71 -24 -115
8 -30 18 -42 48 -57 51 -26 85 -25 137 5 45 26 62 25 62 -1 0 -9 7 -14 18 -12
15 3 17 19 20 138 4 156 -5 198 -47 223 -36 21 -135 22 -173 1z m156 -187 c25
-18 13 -69 -22 -102 -21 -19 -38 -25 -74 -25 -42 0 -49 3 -62 28 -12 23 -12
31 0 54 14 27 38 37 135 57 3 0 13 -5 23 -12z"/>
<path d="M6170 1760 c0 -171 7 -195 67 -224 46 -22 84 -20 137 6 l45 21 19
-23 c19 -23 20 -23 29 -4 5 10 9 98 9 194 l-1 175 -30 0 -30 0 -1 -138 c-2
-129 -3 -140 -25 -163 -18 -19 -32 -24 -74 -24 -80 0 -84 8 -87 180 l-3 145
-27 3 -28 3 0 -151z"/>
<path d="M7059 1887 c-54 -36 -79 -90 -79 -170 0 -97 31 -150 106 -182 20 -8
50 -15 66 -15 43 0 104 35 133 77 22 33 25 48 25 119 0 73 -3 85 -29 120 -41
57 -71 74 -134 74 -40 0 -63 -6 -88 -23z m128 -37 c7 0 24 -12 38 -27 22 -25
25 -36 25 -106 0 -73 -2 -80 -29 -108 -24 -23 -38 -29 -73 -29 -49 0 -55 4
-86 44 -18 23 -22 42 -22 97 0 58 4 72 25 98 26 30 55 42 90 35 11 -2 25 -4
32 -4z"/>
<path d="M8361 1889 c-31 -19 -32 -22 -18 -36 14 -14 23 -14 76 -3 53 11 63
11 86 -4 26 -17 42 -57 30 -75 -3 -6 -23 -11 -44 -11 -60 0 -144 -29 -168 -58
-59 -71 0 -182 96 -182 30 0 91 29 91 43 0 17 28 5 33 -14 4 -15 12 -20 29
-17 23 3 23 6 26 133 3 150 -9 200 -57 228 -42 25 -136 23 -180 -4z m172 -191
c14 -21 2 -60 -27 -91 -21 -22 -34 -27 -74 -27 -56 0 -72 12 -72 56 0 40 18
55 88 70 65 14 72 13 85 -8z"/>
</g>
</svg>
