<svg width="113pt" height="11pt" viewBox="0 0 213 21" xmlns="http://www.w3.org/2000/svg"><g id="fontsvg1679695723130" stroke-linecap="round" fill-rule="evenodd" fill="#ed5c01"><path d="M 105.41 1.172 L 107.065 0.337 L 109.556 0.542 L 110.596 2.402 A 9.516 9.516 0 0 0 110.916 3.674 A 11.868 11.868 0 0 0 111.211 4.482 L 111.006 6.152 L 111.211 6.563 L 111.841 10.913 A 3.141 3.141 0 0 1 111.541 11.656 A 4.132 4.132 0 0 1 111.211 12.158 A 0.359 0.359 0 0 0 111.277 12.296 Q 111.355 12.401 111.519 12.507 A 1.92 1.92 0 0 0 111.621 12.568 L 112.456 12.993 L 113.071 12.363 L 112.661 10.913 L 112.866 10.283 L 113.071 7.793 L 113.701 5.728 L 113.906 3.867 L 114.536 1.787 A 2.719 2.719 0 0 1 115.929 0.766 A 3.356 3.356 0 0 1 115.986 0.747 L 118.052 0.952 Q 118.901 1.084 119.707 1.582 L 120.337 3.647 L 120.542 5.728 L 121.157 7.793 L 121.787 12.363 A 1.836 1.836 0 0 0 122.023 12.768 Q 122.183 12.98 122.417 13.184 L 122.417 12.158 L 123.442 2.402 A 4.237 4.237 0 0 1 124.035 1.293 A 5.388 5.388 0 0 1 124.497 0.747 L 126.973 0.542 Q 127.91 0.718 129.053 1.172 L 129.668 2.402 L 129.258 2.813 L 127.192 11.543 L 126.357 13.403 L 125.933 15.469 Q 125.815 16.567 125.317 17.754 A 3.909 3.909 0 0 1 124.801 19.177 A 4.884 4.884 0 0 1 124.497 19.629 A 5.223 5.223 0 0 1 123.313 19.964 A 6.523 6.523 0 0 1 122.622 20.039 L 121.157 20.244 L 120.542 19.834 A 4.956 4.956 0 0 1 119.522 19.049 A 6.144 6.144 0 0 1 119.092 18.574 L 118.887 16.304 L 117.847 11.953 L 117.642 9.463 A 5.449 5.449 0 0 0 117.433 8.459 Q 117.275 7.939 117.012 7.383 L 116.821 8.848 L 117.012 9.463 L 116.396 11.543 L 116.191 14.019 L 115.562 16.099 L 115.356 18.574 L 113.906 19.834 L 111.621 20.244 L 109.556 19.629 L 108.091 15.688 L 107.681 13.608 Q 107.241 12.539 107.065 11.323 L 104.78 3.032 Q 104.868 2.051 105.41 1.172 Z M 155.742 1.172 L 157.397 0.337 L 159.888 0.542 L 160.928 2.402 A 9.516 9.516 0 0 0 161.248 3.674 A 11.868 11.868 0 0 0 161.543 4.482 L 161.338 6.152 L 161.543 6.563 L 162.173 10.913 A 3.141 3.141 0 0 1 161.873 11.656 A 4.132 4.132 0 0 1 161.543 12.158 A 0.359 0.359 0 0 0 161.609 12.296 Q 161.687 12.401 161.851 12.507 A 1.92 1.92 0 0 0 161.953 12.568 L 162.788 12.993 L 163.403 12.363 L 162.993 10.913 L 163.198 10.283 L 163.403 7.793 L 164.033 5.728 L 164.238 3.867 L 164.868 1.787 A 2.719 2.719 0 0 1 166.261 0.766 A 3.356 3.356 0 0 1 166.318 0.747 L 168.384 0.952 Q 169.233 1.084 170.039 1.582 L 170.669 3.647 L 170.874 5.728 L 171.489 7.793 L 172.119 12.363 A 1.836 1.836 0 0 0 172.355 12.768 Q 172.515 12.98 172.749 13.184 L 172.749 12.158 L 173.774 2.402 A 4.237 4.237 0 0 1 174.367 1.293 A 5.388 5.388 0 0 1 174.829 0.747 L 177.305 0.542 Q 178.242 0.718 179.385 1.172 L 180 2.402 L 179.59 2.813 L 177.524 11.543 L 176.689 13.403 L 176.265 15.469 Q 176.147 16.567 175.649 17.754 A 3.909 3.909 0 0 1 175.133 19.177 A 4.884 4.884 0 0 1 174.829 19.629 A 5.223 5.223 0 0 1 173.645 19.964 A 6.523 6.523 0 0 1 172.954 20.039 L 171.489 20.244 L 170.874 19.834 A 4.956 4.956 0 0 1 169.854 19.049 A 6.144 6.144 0 0 1 169.424 18.574 L 169.219 16.304 L 168.179 11.953 L 167.974 9.463 A 5.449 5.449 0 0 0 167.765 8.459 Q 167.607 7.939 167.344 7.383 L 167.153 8.848 L 167.344 9.463 L 166.729 11.543 L 166.523 14.019 L 165.894 16.099 L 165.688 18.574 L 164.238 19.834 L 161.953 20.244 L 159.888 19.629 L 158.423 15.688 L 158.013 13.608 Q 157.573 12.539 157.397 11.323 L 155.112 3.032 Q 155.2 2.051 155.742 1.172 Z M 140.962 1.055 L 143.921 0.22 A 3.052 3.052 0 0 1 146.18 1.475 A 4.425 4.425 0 0 1 146.47 1.904 L 146.25 3.384 L 146.47 4.028 L 146.25 16.714 L 146.47 18.618 L 145.415 19.673 L 143.071 19.878 L 142.236 19.673 A 4.077 4.077 0 0 1 140.148 18.657 A 5.395 5.395 0 0 1 139.687 18.193 L 135.674 10.151 A 4.526 4.526 0 0 0 134.839 9.124 A 6.205 6.205 0 0 0 133.989 8.467 L 135.044 11.206 L 135.674 18.193 A 3.277 3.277 0 0 1 133.934 19.949 A 4.523 4.523 0 0 1 133.564 20.098 L 131.88 20.303 L 131.235 20.098 L 130.386 19.673 L 129.756 18.193 Q 129.882 17.577 129.943 16.776 A 17.304 17.304 0 0 0 129.961 16.509 L 129.756 12.48 L 129.961 10.781 L 129.756 10.371 L 129.756 5.083 A 21.326 21.326 0 0 0 129.549 3.134 A 25.542 25.542 0 0 0 129.331 1.904 A 3.664 3.664 0 0 1 131.363 0.564 A 5.149 5.149 0 0 1 132.085 0.425 L 135.674 0.645 L 139.907 8.467 A 3.613 3.613 0 0 0 141.182 10.175 A 4.965 4.965 0 0 0 141.812 10.576 L 140.962 8.042 L 140.332 2.329 A 3.289 3.289 0 0 1 140.6 1.636 A 4.505 4.505 0 0 1 140.962 1.055 Z M 51.123 0.63 L 53.862 0 A 2.451 2.451 0 0 1 55.537 1.329 A 3.694 3.694 0 0 1 55.767 1.89 L 56.191 4.424 A 10.777 10.777 0 0 0 55.833 6.26 A 13.006 13.006 0 0 0 55.767 7.163 L 55.547 9.902 L 55.767 12.861 L 55.342 16.025 L 53.862 17.93 L 51.753 19.395 L 49.014 20.244 L 46.904 19.819 L 46.055 20.039 L 43.535 19.189 A 12.433 12.433 0 0 1 42.213 18.091 A 14.71 14.71 0 0 1 41.631 17.505 L 39.946 15.601 A 21.286 21.286 0 0 0 39.708 13.457 A 25.185 25.185 0 0 0 39.521 12.437 L 39.946 10.957 L 39.727 9.697 L 39.946 8.848 L 39.727 6.533 L 39.946 5.684 L 39.727 3.369 A 5.552 5.552 0 0 1 40.08 1.511 A 6.869 6.869 0 0 1 40.371 0.835 L 42.48 0.41 L 43.11 0.63 L 45 0.41 L 45.425 1.055 L 45.85 3.164 L 45.425 3.999 L 45.22 10.122 L 45.425 13.066 A 14.06 14.06 0 0 0 46.042 13.93 Q 46.381 14.371 46.787 14.837 A 23.31 23.31 0 0 0 46.904 14.971 L 48.809 15.176 L 49.644 14.546 L 50.493 12.012 L 50.068 3.574 L 49.863 2.944 L 50.068 2.739 A 5.083 5.083 0 0 1 51.026 0.751 A 5.921 5.921 0 0 1 51.123 0.63 Z M 58.901 0.015 L 61.714 0.454 L 63.018 0.234 L 63.442 0.454 L 67.778 0.454 L 69.507 0.234 L 69.946 0.454 A 15.404 15.404 0 0 1 71.226 0.872 A 20.061 20.061 0 0 1 72.319 1.318 L 74.268 2.622 L 75.132 4.995 L 75.352 7.148 L 74.487 9.976 A 7.33 7.33 0 0 1 72.915 11.382 A 8.281 8.281 0 0 1 72.759 11.484 L 71.88 11.924 A 2.082 2.082 0 0 0 72.302 12.755 A 2.682 2.682 0 0 0 72.539 13.008 A 12.04 12.04 0 0 1 73.211 14.231 A 15.11 15.11 0 0 1 73.623 15.176 L 74.927 16.685 L 75.571 19.058 A 14.725 14.725 0 0 1 74.024 19.629 A 18.313 18.313 0 0 1 72.964 19.922 L 71.016 19.702 L 70.371 19.922 A 4.244 4.244 0 0 1 69.408 19.171 Q 69.003 18.754 68.643 18.193 L 67.778 16.04 L 66.489 14.077 Q 65.698 13.301 64.526 13.008 L 63.677 13.652 L 64.087 14.941 L 64.321 16.685 L 63.882 17.329 A 5.865 5.865 0 0 1 64.11 18.013 Q 64.207 18.37 64.277 18.779 A 10.55 10.55 0 0 1 64.321 19.058 L 63.882 19.702 A 10.835 10.835 0 0 1 62.577 20.107 A 14.447 14.447 0 0 1 61.274 20.361 L 59.121 19.702 A 7.804 7.804 0 0 1 58.541 18.371 A 10.003 10.003 0 0 1 58.257 17.329 L 58.462 11.06 L 58.257 9.756 L 58.462 9.316 L 58.462 8.247 L 58.696 5.215 A 14.325 14.325 0 0 1 58.447 4.043 Q 58.347 3.461 58.276 2.809 A 23.676 23.676 0 0 1 58.257 2.622 A 10.543 10.543 0 0 1 58.84 0.178 A 11.764 11.764 0 0 1 58.901 0.015 Z M 0.864 0.396 L 2.358 0.601 L 2.783 0.396 L 3.428 0.396 L 6.006 0.82 L 8.35 4.453 L 9.214 6.606 A 2.868 2.868 0 0 0 9.99 5.937 A 3.682 3.682 0 0 0 10.283 5.522 L 11.338 3.604 A 8.259 8.259 0 0 1 12.254 1.916 A 9.34 9.34 0 0 1 12.422 1.685 Q 13.403 1.099 14.561 0.82 L 16.919 1.04 A 5.437 5.437 0 0 1 18.391 1.465 A 6.483 6.483 0 0 1 18.838 1.685 Q 18.682 2.55 18.223 3.54 A 10.806 10.806 0 0 1 18.193 3.604 L 16.699 5.098 L 14.136 8.32 L 13.066 10.239 A 10.706 10.706 0 0 0 12.435 11.262 A 13.784 13.784 0 0 0 11.982 12.173 L 12.422 14.531 L 12.217 16.45 L 12.422 17.095 L 12.627 18.809 L 12.217 19.453 L 10.063 20.303 L 7.5 19.863 Q 6.812 19.146 6.211 18.164 L 6.636 15.586 L 6.211 13.022 L 6.636 12.378 L 6.211 11.089 L 2.783 5.742 L 1.289 4.248 L 0 2.534 Q 0.263 1.527 0.86 0.404 A 13.637 13.637 0 0 1 0.864 0.396 Z M 194.912 0.396 L 196.406 0.601 L 196.831 0.396 L 197.476 0.396 L 200.054 0.82 L 202.397 4.453 L 203.262 6.606 A 2.868 2.868 0 0 0 204.038 5.937 A 3.682 3.682 0 0 0 204.331 5.522 L 205.386 3.604 A 8.259 8.259 0 0 1 206.302 1.916 A 9.34 9.34 0 0 1 206.47 1.685 Q 207.451 1.099 208.608 0.82 L 210.967 1.04 A 5.437 5.437 0 0 1 212.439 1.465 A 6.483 6.483 0 0 1 212.886 1.685 Q 212.73 2.55 212.271 3.54 A 10.806 10.806 0 0 1 212.241 3.604 L 210.747 5.098 L 208.184 8.32 L 207.114 10.239 A 10.706 10.706 0 0 0 206.483 11.262 A 13.784 13.784 0 0 0 206.03 12.173 L 206.47 14.531 L 206.265 16.45 L 206.47 17.095 L 206.675 18.809 L 206.265 19.453 L 204.111 20.303 L 201.548 19.863 Q 200.859 19.146 200.259 18.164 L 200.684 15.586 L 200.259 13.022 L 200.684 12.378 L 200.259 11.089 L 196.831 5.742 L 195.337 4.248 L 194.048 2.534 Q 194.31 1.527 194.907 0.404 A 13.637 13.637 0 0 1 194.912 0.396 Z M 185.522 0.425 L 188.042 0.85 A 8.678 8.678 0 0 1 189.08 1.143 A 11.309 11.309 0 0 1 189.932 1.479 A 7.082 7.082 0 0 1 190.481 2.245 Q 190.745 2.666 190.986 3.164 L 191.411 5.273 L 195.835 16.846 Q 196.333 17.695 196.465 18.735 L 194.78 19.79 L 192.466 20.215 A 6.011 6.011 0 0 1 190.939 19.474 A 6.824 6.824 0 0 1 190.781 19.365 A 10.213 10.213 0 0 1 190.26 18.135 A 13.255 13.255 0 0 1 189.932 17.051 L 188.042 17.271 L 185.522 17.051 A 2.327 2.327 0 0 0 184.666 17.701 A 3.356 3.356 0 0 0 184.263 18.311 L 183.208 19.995 L 180.894 20.42 L 178.579 20.215 L 177.524 18.735 A 14.93 14.93 0 0 1 178.331 16.754 A 19.465 19.465 0 0 1 179.209 15.161 L 179.429 13.052 L 180.894 9.053 L 181.729 7.383 A 10.087 10.087 0 0 1 182.278 5.471 A 11.226 11.226 0 0 1 182.358 5.273 A 11.908 11.908 0 0 1 182.724 4.359 Q 182.93 3.897 183.191 3.401 A 19.101 19.101 0 0 1 183.208 3.369 A 5.042 5.042 0 0 1 184.437 1.333 A 7.117 7.117 0 0 1 185.522 0.425 Z M 33.896 2.432 L 36.328 4.878 A 19.777 19.777 0 0 0 36.78 6.927 A 26.037 26.037 0 0 0 37.354 8.745 L 36.943 13.008 A 5.954 5.954 0 0 1 36.269 14.897 A 8.352 8.352 0 0 1 35.332 16.245 Q 34.618 17.508 33.274 18.732 A 14.953 14.953 0 0 1 33.091 18.896 Q 31.62 19.632 29.695 20.296 A 38.64 38.64 0 0 1 29.634 20.317 L 25.166 20.112 A 13.248 13.248 0 0 1 23.467 19.22 A 17.367 17.367 0 0 1 22.119 18.296 Q 21.137 17.44 20.188 16.097 A 18.607 18.607 0 0 1 19.878 15.645 A 14.894 14.894 0 0 1 19.178 13.593 A 18.605 18.605 0 0 1 18.867 12.202 L 18.662 10.151 L 19.072 8.13 A 13.937 13.937 0 0 1 19.737 6.225 A 18.327 18.327 0 0 1 20.493 4.673 A 17.646 17.646 0 0 1 21.434 3.638 Q 21.934 3.128 22.523 2.597 A 30.088 30.088 0 0 1 22.925 2.241 A 11.293 11.293 0 0 1 24.092 1.415 Q 24.925 0.896 25.972 0.41 A 25.968 25.968 0 0 1 28.11 0.612 A 35.203 35.203 0 0 1 30.454 1.011 Q 32.109 1.421 33.896 2.432 Z M 101.25 2.432 L 103.682 4.878 A 19.777 19.777 0 0 0 104.134 6.927 A 26.037 26.037 0 0 0 104.707 8.745 L 104.297 13.008 A 5.954 5.954 0 0 1 103.623 14.897 A 8.352 8.352 0 0 1 102.686 16.245 Q 101.972 17.508 100.628 18.732 A 14.953 14.953 0 0 1 100.444 18.896 Q 98.974 19.632 97.049 20.296 A 38.64 38.64 0 0 1 96.987 20.317 L 92.52 20.112 A 13.248 13.248 0 0 1 90.82 19.22 A 17.367 17.367 0 0 1 89.473 18.296 Q 88.491 17.44 87.541 16.097 A 18.607 18.607 0 0 1 87.231 15.645 A 14.894 14.894 0 0 1 86.531 13.593 A 18.605 18.605 0 0 1 86.221 12.202 L 86.016 10.151 L 86.426 8.13 A 13.937 13.937 0 0 1 87.09 6.225 A 18.327 18.327 0 0 1 87.847 4.673 A 17.646 17.646 0 0 1 88.788 3.638 Q 89.288 3.128 89.876 2.597 A 30.088 30.088 0 0 1 90.278 2.241 A 11.293 11.293 0 0 1 91.446 1.415 Q 92.279 0.896 93.325 0.41 A 25.968 25.968 0 0 1 95.464 0.612 A 35.203 35.203 0 0 1 97.808 1.011 Q 99.463 1.421 101.25 2.432 Z M 25.166 7.515 L 24.141 10.562 L 25.371 13.608 A 8.805 8.805 0 0 0 26.712 14.316 Q 27.382 14.603 28.162 14.825 A 14.416 14.416 0 0 0 28.213 14.839 Q 29.487 14.253 30.85 13.418 L 31.465 10.767 L 31.26 10.151 A 17.529 17.529 0 0 0 30.778 7.948 A 20.665 20.665 0 0 0 30.454 6.914 A 15.135 15.135 0 0 0 28.741 6.11 A 18.528 18.528 0 0 0 27.598 5.698 A 11.025 11.025 0 0 0 26.064 6.73 A 13.68 13.68 0 0 0 25.166 7.515 Z M 92.52 7.515 L 91.494 10.562 L 92.725 13.608 A 8.805 8.805 0 0 0 94.066 14.316 Q 94.736 14.603 95.516 14.825 A 14.416 14.416 0 0 0 95.566 14.839 Q 96.841 14.253 98.203 13.418 L 98.818 10.767 L 98.613 10.151 A 17.529 17.529 0 0 0 98.132 7.948 A 20.665 20.665 0 0 0 97.808 6.914 A 15.135 15.135 0 0 0 96.094 6.11 A 18.528 18.528 0 0 0 94.951 5.698 A 11.025 11.025 0 0 0 93.418 6.73 A 13.68 13.68 0 0 0 92.52 7.515 Z M 63.882 5.859 L 64.087 8.452 L 64.526 9.111 L 68.203 8.452 A 8.448 8.448 0 0 0 69.054 7.793 A 11.071 11.071 0 0 0 69.727 7.148 A 6.379 6.379 0 0 0 69.201 6.131 A 7.758 7.758 0 0 0 68.862 5.64 A 16.404 16.404 0 0 0 66.932 5.116 Q 65.903 4.9 64.746 4.775 A 4.151 4.151 0 0 0 64.255 5.31 A 5.587 5.587 0 0 0 63.882 5.859 Z M 185.933 10.532 L 185.522 12.217 A 6.081 6.081 0 0 0 186.464 12.497 A 8.213 8.213 0 0 0 187.412 12.642 L 188.467 12.422 L 187.837 9.902 A 19.151 19.151 0 0 0 187.155 7.424 A 21.519 21.519 0 0 0 186.987 6.958 A 16.139 16.139 0 0 1 186.641 8.428 Q 186.431 9.172 186.138 9.984 A 28.359 28.359 0 0 1 185.933 10.532 Z M 143.921 14.18 L 143.291 13.755 L 143.071 15.645 L 142.661 16.934 Q 142.674 17.194 142.988 17.316 A 1.082 1.082 0 0 0 143.071 17.344 Q 143.466 16.582 143.494 15.521 A 6.107 6.107 0 0 0 143.496 15.439 L 143.921 14.18 Z M 189.097 14.736 L 189.932 14.736 L 190.781 15.996 A 2.507 2.507 0 0 0 191.173 14.999 A 3.056 3.056 0 0 0 191.206 14.736 A 8.281 8.281 0 0 0 190.717 14.2 Q 190.368 13.847 189.932 13.477 A 2.566 2.566 0 0 0 189.376 14.14 A 3.514 3.514 0 0 0 189.097 14.736 Z M 185.303 6.108 L 184.878 5.479 A 12.762 12.762 0 0 0 184.176 7.113 A 15.623 15.623 0 0 0 183.838 8.203 L 184.468 8.423 L 185.303 6.108 Z M 8.994 13.667 L 8.13 14.736 L 9.858 16.23 L 9.639 15.176 L 9.858 14.941 A 2.989 2.989 0 0 0 9.177 13.845 A 3.606 3.606 0 0 0 8.994 13.667 Z M 203.042 13.667 L 202.178 14.736 L 203.906 16.23 L 203.687 15.176 L 203.906 14.941 A 2.989 2.989 0 0 0 203.225 13.845 A 3.606 3.606 0 0 0 203.042 13.667 Z M 110.376 14.648 L 110.171 13.184 A 5.472 5.472 0 0 0 109.813 14.526 A 6.571 6.571 0 0 0 109.761 15.059 L 111.211 15.879 L 110.376 14.648 Z M 160.708 14.648 L 160.503 13.184 A 5.472 5.472 0 0 0 160.145 14.526 A 6.571 6.571 0 0 0 160.093 15.059 L 161.543 15.879 L 160.708 14.648 Z M 117.847 4.893 L 117.231 3.867 L 116.191 6.343 L 116.821 6.563 L 117.847 4.893 Z M 168.179 4.893 L 167.563 3.867 L 166.523 6.343 L 167.153 6.563 L 168.179 4.893 Z M 8.569 9.375 L 8.774 10.884 L 8.35 11.528 L 9.639 11.528 A 5.142 5.142 0 0 0 8.569 9.375 Z M 202.617 9.375 L 202.822 10.884 L 202.397 11.528 L 203.687 11.528 A 5.142 5.142 0 0 0 202.617 9.375 Z M 133.345 5.713 L 132.29 4.028 L 131.88 5.508 L 131.88 6.138 L 133.345 5.713 Z M 193.315 15.586 L 192.671 15.161 A 5.941 5.941 0 0 1 192.214 16.506 A 6.919 6.919 0 0 1 192.041 16.846 L 193.096 17.271 L 193.315 15.586 Z M 121.992 14.238 L 120.747 14.238 L 120.132 15.059 L 121.787 15.469 L 122.212 14.648 L 121.992 14.238 Z M 172.324 14.238 L 171.079 14.238 L 170.464 15.059 L 172.119 15.469 L 172.544 14.648 L 172.324 14.238 Z M 141.606 15.864 L 141.182 13.96 L 140.332 14.81 A 6.475 6.475 0 0 1 141.052 15.345 A 8.317 8.317 0 0 1 141.606 15.864 Z M 34.307 7.72 L 33.691 7.104 L 32.886 8.335 A 1.001 1.001 0 0 0 33.445 8.913 A 1.356 1.356 0 0 0 33.501 8.936 A 3.6 3.6 0 0 0 33.871 8.479 Q 34.101 8.148 34.307 7.72 Z M 101.66 7.72 L 101.045 7.104 L 100.239 8.335 A 1.001 1.001 0 0 0 100.799 8.913 A 1.356 1.356 0 0 0 100.854 8.936 A 3.6 3.6 0 0 0 101.225 8.479 Q 101.454 8.148 101.66 7.72 Z M 33.091 14.634 A 3.82 3.82 0 0 0 31.875 16.465 Q 32.974 15.85 33.091 14.634 Z M 100.444 14.634 A 3.82 3.82 0 0 0 99.229 16.465 Q 100.327 15.85 100.444 14.634 Z M 25.562 16.245 L 24.756 17.271 L 26.177 17.681 A 2.72 2.72 0 0 0 25.836 16.659 A 3.513 3.513 0 0 0 25.562 16.245 Z M 92.915 16.245 L 92.109 17.271 L 93.53 17.681 A 2.72 2.72 0 0 0 93.189 16.659 A 3.513 3.513 0 0 0 92.915 16.245 Z M 191.836 12.422 L 190.562 10.737 Q 190.795 11.713 191.824 12.414 A 4.614 4.614 0 0 0 191.836 12.422 Z M 185.303 3.794 L 185.098 5.054 L 185.522 5.273 L 186.357 4.849 A 3.015 3.015 0 0 0 185.674 4.063 A 3.794 3.794 0 0 0 185.303 3.794 Z M 142.441 11.426 L 141.812 12.7 L 142.441 13.125 L 142.866 11.836 Q 142.822 11.558 142.441 11.426 Z M 42.48 14.341 L 42.056 12.656 L 41.631 14.121 L 42.48 14.341 Z M 22.119 14.224 L 22.515 14.839 L 23.54 14.019 A 1.113 1.113 0 0 0 22.979 13.443 A 1.453 1.453 0 0 0 22.925 13.418 Q 22.697 13.742 22.302 14.076 A 5.807 5.807 0 0 1 22.119 14.224 Z M 89.473 14.224 L 89.868 14.839 L 90.894 14.019 A 1.113 1.113 0 0 0 90.332 13.443 A 1.453 1.453 0 0 0 90.278 13.418 Q 90.05 13.742 89.655 14.076 A 5.807 5.807 0 0 1 89.473 14.224 Z M 135.894 6.973 A 4.711 4.711 0 0 0 136.608 8.269 A 5.727 5.727 0 0 0 136.948 8.672 A 3.24 3.24 0 0 0 136.445 7.609 A 4.476 4.476 0 0 0 135.894 6.973 Z M 182.578 10.107 A 2.856 2.856 0 0 0 183.407 11.589 A 3.668 3.668 0 0 0 183.633 11.792 A 4.68 4.68 0 0 0 182.977 10.586 A 5.786 5.786 0 0 0 182.578 10.107 Z M 132.715 15.439 L 132.085 16.509 L 132.715 16.934 L 133.345 16.509 A 2.676 2.676 0 0 0 132.936 15.709 A 3.304 3.304 0 0 0 132.715 15.439 Z M 133.989 2.959 L 132.935 3.589 L 134.399 4.028 Q 134.358 3.416 134.169 3.135 A 0.557 0.557 0 0 0 133.989 2.959 Z M 25.562 3.252 A 4.763 4.763 0 0 0 26.155 4.069 A 6.384 6.384 0 0 0 26.777 4.673 Q 26.719 3.604 25.562 3.252 Z M 92.915 3.252 A 4.763 4.763 0 0 0 93.509 4.069 A 6.384 6.384 0 0 0 94.131 4.673 Q 94.072 3.604 92.915 3.252 Z M 21.709 8.525 L 21.914 9.346 Q 21.727 9.413 21.54 9.687 A 2.03 2.03 0 0 0 21.504 9.741 A 0.412 0.412 0 0 0 21.698 10.053 Q 21.767 10.099 21.86 10.133 A 1.082 1.082 0 0 0 21.914 10.151 L 22.119 8.936 Q 22.083 8.72 21.832 8.583 A 1.139 1.139 0 0 0 21.709 8.525 Z M 89.063 8.525 L 89.268 9.346 Q 89.08 9.413 88.893 9.687 A 2.03 2.03 0 0 0 88.857 9.741 A 0.412 0.412 0 0 0 89.051 10.053 Q 89.12 10.099 89.214 10.133 A 1.082 1.082 0 0 0 89.268 10.151 L 89.473 8.936 Q 89.437 8.72 89.186 8.583 A 1.139 1.139 0 0 0 89.063 8.525 Z M 68.203 10.62 A 3.281 3.281 0 0 0 69.466 11.598 A 4.026 4.026 0 0 0 69.727 11.704 A 5.309 5.309 0 0 0 68.594 10.83 A 6.291 6.291 0 0 0 68.203 10.62 Z M 188.892 3.999 L 188.687 4.424 L 188.892 5.684 L 189.316 4.424 L 188.892 3.999 Z M 71.235 3.911 L 70.591 3.267 L 70.151 4.336 L 71.235 3.911 Z M 181.304 16.641 L 181.099 16.641 L 181.099 18.105 L 181.304 17.051 L 181.304 16.641 Z M 132.935 13.125 L 132.51 12.905 L 132.29 13.96 L 132.715 14.18 L 132.935 13.125 Z M 62.153 9.111 L 61.934 8.892 L 61.274 9.551 L 62.153 9.976 L 62.153 9.111 Z M 20.903 10.767 A 1.412 1.412 0 0 0 21.676 11.693 A 2.036 2.036 0 0 0 21.914 11.792 A 1.987 1.987 0 0 0 21.055 10.847 A 2.557 2.557 0 0 0 20.903 10.767 Z M 88.257 10.767 A 1.412 1.412 0 0 0 89.03 11.693 A 2.036 2.036 0 0 0 89.268 11.792 A 1.987 1.987 0 0 0 88.409 10.847 A 2.557 2.557 0 0 0 88.257 10.767 Z M 122.959 16.318 L 122.417 16.714 L 123.032 17.344 L 123.442 16.714 L 122.959 16.318 Z M 173.291 16.318 L 172.749 16.714 L 173.364 17.344 L 173.774 16.714 L 173.291 16.318 Z M 54.082 9.067 L 52.808 8.438 A 3.623 3.623 0 0 0 54.082 9.067 Z M 125.728 6.768 L 125.317 6.563 L 125.317 7.793 L 125.728 6.768 Z M 176.06 6.768 L 175.649 6.563 L 175.649 7.793 L 176.06 6.768 Z M 42.261 5.273 Q 42.598 5.815 43.315 6.108 A 1.429 1.429 0 0 0 42.697 5.456 A 2.167 2.167 0 0 0 42.261 5.273 Z M 144.126 3.589 L 143.716 4.863 A 1.58 1.58 0 0 0 144.05 4.219 Q 144.126 3.935 144.126 3.589 Z M 29.019 16.055 L 29.839 17.065 A 1.488 1.488 0 0 0 29.116 16.107 A 1.857 1.857 0 0 0 29.019 16.055 Z M 96.372 16.055 L 97.192 17.065 A 1.488 1.488 0 0 0 96.47 16.107 A 1.857 1.857 0 0 0 96.372 16.055 Z M 52.808 11.382 Q 52.925 11.953 53.438 12.437 A 1.474 1.474 0 0 0 53.083 11.649 A 2.104 2.104 0 0 0 52.808 11.382 Z M 192.466 15.161 L 192.261 14.312 L 191.836 15.161 L 192.466 15.161 Z M 189.097 5.903 L 188.687 6.958 A 1.937 1.937 0 0 0 189.009 6.372 A 1.756 1.756 0 0 0 189.097 5.903 Z M 23.95 4.673 L 23.54 4.058 L 23.73 5.083 L 23.95 4.673 Z M 91.304 4.673 L 90.894 4.058 L 91.084 5.083 L 91.304 4.673 Z M 125.522 4.482 Q 125.596 5.039 125.933 5.508 A 1.573 1.573 0 0 0 125.699 4.732 A 2.099 2.099 0 0 0 125.522 4.482 Z M 175.854 4.482 Q 175.928 5.039 176.265 5.508 A 1.573 1.573 0 0 0 176.031 4.732 A 2.099 2.099 0 0 0 175.854 4.482 Z M 53.438 6.738 L 53.027 6.738 L 52.808 7.383 L 53.232 7.383 L 53.438 6.738 Z M 32.681 4.673 L 32.476 4.673 L 32.065 5.288 L 32.681 5.288 L 32.681 4.673 Z M 100.034 4.673 L 99.829 4.673 L 99.419 5.288 L 100.034 5.288 L 100.034 4.673 Z M 6.211 5.317 L 5.566 4.453 A 1.768 1.768 0 0 0 6.119 5.244 A 2.176 2.176 0 0 0 6.211 5.317 Z M 200.259 5.317 L 199.614 4.453 A 1.768 1.768 0 0 0 200.167 5.244 A 2.176 2.176 0 0 0 200.259 5.317 Z M 144.36 8.262 L 143.921 8.262 L 144.126 9.097 L 144.36 8.262 Z M 187.632 5.479 A 1.123 1.123 0 0 0 188.026 6.16 A 1.663 1.663 0 0 0 188.262 6.328 A 2.043 2.043 0 0 0 187.788 5.62 A 2.484 2.484 0 0 0 187.632 5.479 Z M 23.73 5.479 L 23.54 6.299 L 24.141 5.889 A 0.4 0.4 0 0 0 24.077 5.768 Q 24.002 5.668 23.853 5.561 A 2.19 2.19 0 0 0 23.73 5.479 Z M 91.084 5.479 L 90.894 6.299 L 91.494 5.889 A 0.4 0.4 0 0 0 91.43 5.768 Q 91.355 5.668 91.206 5.561 A 2.19 2.19 0 0 0 91.084 5.479 Z M 139.907 12.905 L 139.688 13.33 L 140.127 13.535 L 140.332 12.905 L 139.907 12.905 Z M 70.591 16.245 L 70.371 16.245 L 70.151 16.904 L 70.591 16.904 L 70.591 16.245 Z M 6.416 5.962 L 6.211 5.962 L 6.006 6.606 L 6.416 6.606 L 6.416 5.962 Z M 200.464 5.962 L 200.259 5.962 L 200.054 6.606 L 200.464 6.606 L 200.464 5.962 Z M 11.133 9.609 L 10.283 9.17 A 1.456 1.456 0 0 0 10.865 9.538 A 1.919 1.919 0 0 0 11.133 9.609 Z M 205.181 9.609 L 204.331 9.17 A 1.456 1.456 0 0 0 204.913 9.538 A 1.919 1.919 0 0 0 205.181 9.609 Z M 53.232 3.999 L 53.027 3.999 L 52.808 4.629 L 53.232 4.629 L 53.232 3.999 Z M 46.274 17.08 L 45.425 16.655 A 1.408 1.408 0 0 0 46.227 17.073 A 1.755 1.755 0 0 0 46.274 17.08 Z M 53.438 2.944 L 52.603 2.52 A 1.181 1.181 0 0 0 53.422 2.943 A 1.491 1.491 0 0 0 53.437 2.944 Z M 12.422 5.742 L 12.217 6.167 L 12.627 6.387 L 12.847 5.962 L 12.422 5.742 Z M 206.47 5.742 L 206.265 6.167 L 206.675 6.387 L 206.895 5.962 L 206.47 5.742 Z M 27.598 1.831 L 27.393 1.831 L 27.188 2.432 L 27.598 2.432 L 27.598 1.831 Z M 94.951 1.831 L 94.746 1.831 L 94.541 2.432 L 94.951 2.432 L 94.951 1.831 Z M 50.493 16.655 A 0.997 0.997 0 0 0 51.045 17.253 A 1.297 1.297 0 0 0 51.123 17.285 A 0.988 0.988 0 0 0 50.701 16.763 A 1.431 1.431 0 0 0 50.493 16.655 Z M 184.878 14.106 L 184.468 14.106 L 184.673 14.736 L 184.878 14.106 Z M 22.515 6.299 L 22.324 6.299 L 22.119 6.914 L 22.515 6.694 L 22.515 6.299 Z M 89.868 6.299 L 89.678 6.299 L 89.473 6.914 L 89.868 6.694 L 89.868 6.299 Z M 60.63 7.383 Q 60.688 7.793 61.069 8.027 A 1.066 1.066 0 0 0 60.955 7.71 A 0.868 0.868 0 0 0 60.63 7.383 Z M 134.619 5.508 A 0.701 0.701 0 0 0 134.711 5.843 Q 134.79 5.979 134.938 6.077 A 1.007 1.007 0 0 0 135.044 6.138 A 0.965 0.965 0 0 0 134.933 5.818 A 0.842 0.842 0 0 0 134.619 5.508 Z M 59.985 14.297 L 60.425 14.941 A 1.028 1.028 0 0 0 60.278 14.578 A 0.947 0.947 0 0 0 59.985 14.297 Z M 133.989 6.343 L 133.345 5.918 Q 133.535 6.226 133.989 6.343 Z M 116.821 3.442 L 116.396 2.813 A 1.022 1.022 0 0 0 116.552 3.182 A 0.958 0.958 0 0 0 116.821 3.442 Z M 167.153 3.442 L 166.729 2.813 A 1.022 1.022 0 0 0 166.884 3.182 A 0.958 0.958 0 0 0 167.153 3.442 Z M 108.721 8.628 L 109.146 9.258 A 1.022 1.022 0 0 0 108.99 8.888 A 0.958 0.958 0 0 0 108.721 8.628 Z M 159.053 8.628 L 159.478 9.258 A 1.022 1.022 0 0 0 159.322 8.888 A 0.958 0.958 0 0 0 159.053 8.628 Z M 32.285 5.889 L 31.67 5.479 Q 31.788 5.797 32.114 5.868 A 0.933 0.933 0 0 0 32.285 5.889 Z M 99.639 5.889 L 99.023 5.479 Q 99.141 5.797 99.468 5.868 A 0.933 0.933 0 0 0 99.639 5.889 Z M 185.728 2.534 L 186.357 2.944 Q 186.195 2.66 185.796 2.551 A 1.569 1.569 0 0 0 185.728 2.534 Z M 111.841 15.879 L 111.621 15.879 L 111.841 16.509 L 111.841 15.879 Z M 162.173 15.879 L 161.953 15.879 L 162.173 16.509 L 162.173 15.879 Z M 113.906 14.238 L 113.701 14.648 L 114.126 14.648 L 114.126 14.238 L 113.906 14.238 Z M 164.238 14.238 L 164.033 14.648 L 164.458 14.648 L 164.458 14.238 L 164.238 14.238 Z M 52.178 13.066 L 51.973 13.491 L 52.383 13.491 L 52.383 13.066 L 52.178 13.066 Z M 30.454 17.476 L 30.044 16.86 A 0.9 0.9 0 0 0 30.432 17.461 A 1.093 1.093 0 0 0 30.454 17.476 Z M 97.808 17.476 L 97.397 16.86 A 0.9 0.9 0 0 0 97.786 17.461 A 1.093 1.093 0 0 0 97.808 17.476 Z M 143.496 7.192 L 143.291 7.192 L 143.496 7.822 L 143.496 7.192 Z M 35.332 13.198 L 34.717 12.803 A 0.806 0.806 0 0 0 35.257 13.185 A 1.068 1.068 0 0 0 35.332 13.198 Z M 102.686 13.198 L 102.07 12.803 A 0.806 0.806 0 0 0 102.61 13.185 A 1.068 1.068 0 0 0 102.686 13.198 Z M 33.091 3.867 L 32.886 3.867 L 33.091 4.468 L 33.091 3.867 Z M 100.444 3.867 L 100.239 3.867 L 100.444 4.468 L 100.444 3.867 Z M 183.633 8.848 L 183.413 9.258 L 183.838 9.258 L 183.633 8.848 Z M 71.362 10.365 A 1.16 1.16 0 0 0 71.455 10.4 A 0.434 0.434 0 0 0 71.307 10.14 Q 71.243 10.083 71.152 10.036 A 1.195 1.195 0 0 0 71.016 9.976 Q 71.054 10.232 71.362 10.365 Z M 62.798 10.4 Q 62.856 10.679 63.237 10.84 Q 63.157 10.64 62.859 10.44 A 2.286 2.286 0 0 0 62.798 10.4 Z M 69.727 11.924 A 0.512 0.512 0 0 0 69.886 12.197 Q 69.988 12.292 70.151 12.363 Q 70.078 12.129 69.727 11.924 Z M 60.559 11.024 A 1.237 1.237 0 0 0 60.63 11.06 A 0.446 0.446 0 0 0 60.553 10.909 Q 60.445 10.764 60.205 10.62 Q 60.271 10.869 60.559 11.024 Z M 69.946 2.622 A 0.49 0.49 0 0 0 70.024 2.758 Q 70.135 2.899 70.371 3.047 A 0.456 0.456 0 0 0 70.181 2.741 Q 70.11 2.688 70.013 2.648 A 1.13 1.13 0 0 0 69.946 2.622 Z M 135.348 5.028 A 1.207 1.207 0 0 0 135.454 5.083 A 0.459 0.459 0 0 0 135.292 4.802 Q 135.226 4.745 135.133 4.698 A 1.136 1.136 0 0 0 135.044 4.658 Q 135.093 4.879 135.348 5.028 Z M 34.825 11.337 A 1.154 1.154 0 0 0 34.922 11.382 A 0.489 0.489 0 0 0 34.727 11.085 Q 34.655 11.031 34.558 10.99 A 1.106 1.106 0 0 0 34.512 10.972 Q 34.562 11.197 34.825 11.337 Z M 102.179 11.337 A 1.154 1.154 0 0 0 102.275 11.382 A 0.489 0.489 0 0 0 102.08 11.085 Q 102.008 11.031 101.911 10.99 A 1.106 1.106 0 0 0 101.865 10.972 Q 101.915 11.197 102.179 11.337 Z M 12.847 7.251 L 13.066 7.676 L 13.066 7.251 L 12.847 7.251 Z M 62.798 2.622 L 63.018 3.047 L 63.018 2.622 L 62.798 2.622 Z M 206.895 7.251 L 207.114 7.676 L 207.114 7.251 L 206.895 7.251 Z M 112.046 15.879 L 112.251 16.304 L 112.251 15.879 L 112.046 15.879 Z M 135.044 6.973 L 135.249 7.397 L 135.249 6.973 L 135.044 6.973 Z M 162.378 15.879 L 162.583 16.304 L 162.583 15.879 L 162.378 15.879 Z M 29.839 3.047 L 30.044 3.457 L 30.044 3.047 L 29.839 3.047 Z M 97.192 3.047 L 97.397 3.457 L 97.397 3.047 L 97.192 3.047 Z M 112.456 15.688 L 112.661 16.099 L 112.661 15.688 L 112.456 15.688 Z M 162.788 15.688 L 162.993 16.099 L 162.993 15.688 L 162.788 15.688 Z" vector-effect="non-scaling-stroke"/></g></svg>