<?xml version="1.0" encoding="UTF-8" standalone="no"?>
<!DOCTYPE svg PUBLIC "-//W3C//DTD SVG 20010904//EN"
              "http://www.w3.org/TR/2001/REC-SVG-20010904/DTD/svg10.dtd">

<svg xmlns="http://www.w3.org/2000/svg"
     width="640pt" height="420pt"
     viewBox="0 0 640 400">
  <path id="Path #1"
        fill="#ed5c01" stroke="none" stroke-width="1"
        d="M 209.08,167.95
           C 209.08,167.95 209.08,178.00 209.08,178.00
             209.08,178.00 204.25,178.00 204.25,178.00
             204.25,178.00 204.25,167.95 204.25,167.95
             204.25,167.95 194.77,152.00 194.77,152.00
             194.77,152.00 199.03,152.00 199.03,152.00
             199.45,152.00 199.78,152.11 200.03,152.31
             200.28,152.51 200.49,152.77 200.66,153.08
             200.66,153.08 205.41,161.80 205.41,161.80
             205.68,162.33 205.91,162.82 206.12,163.28
             206.34,163.73 206.54,164.18 206.70,164.62
             206.86,164.17 207.04,163.71 207.23,163.25
             207.44,162.79 207.68,162.31 207.94,161.80
             207.94,161.80 212.67,153.08 212.67,153.08
             212.80,152.82 213.00,152.57 213.27,152.34
             213.54,152.12 213.88,152.00 214.28,152.00
             214.28,152.00 218.56,152.00 218.56,152.00
             218.56,152.00 209.08,167.95 209.08,167.95 Z
           M 224.38,159.00
           C 225.74,159.00 226.98,159.23 228.09,159.67
             229.22,160.11 230.18,160.74 230.98,161.56
             231.79,162.38 232.40,163.37 232.83,164.55
             233.25,165.71 233.47,167.02 233.47,168.47
             233.47,169.94 233.25,171.26 232.83,172.44
             232.40,173.61 231.79,174.61 230.98,175.44
             230.18,176.26 229.22,176.90 228.09,177.34
             226.98,177.78 225.74,178.00 224.38,178.00
             222.99,178.00 221.73,177.78 220.59,177.34
             219.47,176.90 218.50,176.26 217.70,175.44
             216.91,174.61 216.30,173.61 215.86,172.44
             215.42,171.26 215.20,169.94 215.20,168.47
             215.20,167.02 215.42,165.71 215.86,164.55
             216.30,163.37 216.91,162.38 217.70,161.56
             218.50,160.74 219.47,160.11 220.59,159.67
             221.73,159.23 222.99,159.00 224.38,159.00 Z
           M 224.38,174.56
           C 225.91,174.56 227.04,174.05 227.78,173.03
             228.52,172.00 228.89,170.50 228.89,168.52
             228.89,166.54 228.52,165.03 227.78,164.00
             227.04,162.96 225.91,162.44 224.38,162.44
             222.81,162.44 221.66,162.96 220.91,164.00
             220.16,165.04 219.78,166.55 219.78,168.52
             219.78,170.48 220.16,171.98 220.91,173.02
             221.66,174.05 222.81,174.56 224.38,174.56 Z
           M 241.47,159.00
           C 241.47,159.00 241.47,170.95 241.47,170.95
             241.47,172.10 241.73,172.99 242.25,173.62
             242.77,174.25 243.55,174.56 244.59,174.56
             245.36,174.56 246.08,174.39 246.75,174.05
             247.43,173.70 248.06,173.21 248.66,172.61
             248.66,172.61 248.66,159.00 248.66,159.00
             248.66,159.00 253.11,159.00 253.11,159.00
             253.11,159.00 253.11,178.00 253.11,178.00
             253.11,178.00 250.39,178.00 250.39,178.00
             249.80,178.00 249.44,177.71 249.28,177.14
             249.28,177.14 248.97,175.56 248.97,175.56
             248.58,175.93 248.19,176.26 247.78,176.56
             247.38,176.87 246.94,177.12 246.47,177.34
             246.00,177.55 245.50,177.71 244.97,177.83
             244.45,177.95 243.88,178.00 243.25,178.00
             242.24,178.00 241.34,177.83 240.56,177.48
             239.79,177.13 239.14,176.64 238.61,176.02
             238.09,175.38 237.69,174.63 237.42,173.77
             237.15,172.89 237.02,171.93 237.02,170.89
             237.02,170.89 237.02,159.00 237.02,159.00
             237.02,159.00 241.47,159.00 241.47,159.00 Z
           M 257.20,178.00
           C 257.20,178.00 257.20,159.00 257.20,159.00
             257.20,159.00 259.81,159.00 259.81,159.00
             260.26,159.00 260.57,159.10 260.75,159.30
             260.94,159.50 261.06,159.84 261.12,160.34
             261.12,160.34 261.38,162.88 261.38,162.88
             261.96,161.67 262.64,160.72 263.44,160.03
             264.23,159.34 265.16,159.00 266.25,159.00
             267.10,159.00 267.79,159.09 268.30,159.28
             268.30,159.28 268.02,163.28 268.02,163.28
             267.95,163.54 267.86,163.73 267.75,163.84
             267.63,163.95 267.48,164.00 267.30,164.00
             267.12,164.00 266.85,164.00 266.50,164.00
             266.14,164.00 265.80,164.00 265.45,164.00
             264.96,164.00 264.52,164.07 264.14,164.22
             263.75,164.36 263.41,164.55 263.11,164.81
             262.80,165.07 262.54,165.39 262.30,165.77
             262.07,166.13 261.85,166.55 261.64,167.03
             261.64,167.03 261.64,178.00 261.64,178.00
             261.64,178.00 257.20,178.00 257.20,178.00 Z
           M 304.72,165.00
           C 304.72,166.87 304.40,168.59 303.77,170.19
             303.14,171.77 302.25,173.15 301.09,174.31
             299.95,175.47 298.56,176.38 296.94,177.03
             295.32,177.68 293.52,178.00 291.55,178.00
             289.58,178.00 287.78,177.68 286.16,177.03
             284.54,176.38 283.16,175.47 282.00,174.31
             280.84,173.15 279.94,171.77 279.30,170.19
             278.66,168.59 278.34,166.87 278.34,165.00
             278.34,163.14 278.66,161.41 279.30,159.83
             279.94,158.23 280.84,156.86 282.00,155.70
             283.16,154.54 284.54,153.63 286.16,152.98
             287.78,152.33 289.58,152.00 291.55,152.00
             292.87,152.00 294.11,152.15 295.27,152.45
             296.43,152.75 297.50,153.17 298.47,153.72
             299.45,154.26 300.32,154.92 301.09,155.70
             301.86,156.48 302.52,157.36 303.06,158.33
             303.60,159.29 304.02,160.33 304.30,161.45
             304.58,162.58 304.72,163.76 304.72,165.00 Z
           M 299.77,165.02
           C 299.77,163.61 299.57,162.35 299.19,161.23
             298.81,160.12 298.27,159.18 297.56,158.41
             296.85,157.62 295.99,157.03 294.97,156.62
             293.96,156.21 292.82,156.00 291.55,156.00
             290.27,156.00 289.13,156.21 288.11,156.62
             287.10,157.03 286.23,157.62 285.52,158.41
             284.80,159.18 284.26,160.12 283.88,161.23
             283.49,162.35 283.30,163.61 283.30,165.02
             283.30,166.41 283.49,167.67 283.88,168.78
             284.26,169.90 284.80,170.84 285.52,171.61
             286.23,172.38 287.10,172.98 288.11,173.39
             289.13,173.80 290.27,174.00 291.55,174.00
             292.82,174.00 293.96,173.80 294.97,173.39
             295.99,172.98 296.85,172.38 297.56,171.61
             298.27,170.84 298.81,169.90 299.19,168.78
             299.57,167.67 299.77,166.41 299.77,165.02 Z
           M 306.33,159.00
           C 306.33,159.00 309.88,159.00 309.88,159.00
             310.20,159.00 310.47,159.09 310.70,159.25
             310.93,159.41 311.08,159.61 311.14,159.86
             311.14,159.86 313.80,170.02 313.80,170.02
             313.92,170.57 314.03,171.11 314.12,171.64
             314.23,172.17 314.32,172.70 314.41,173.22
             314.54,172.70 314.68,172.18 314.83,171.66
             314.97,171.12 315.13,170.58 315.31,170.02
             315.31,170.02 318.36,159.84 318.36,159.84
             318.43,159.61 318.57,159.41 318.78,159.25
             319.00,159.09 319.25,159.00 319.55,159.00
             319.55,159.00 321.52,159.00 321.52,159.00
             321.83,159.00 322.09,159.09 322.31,159.25
             322.54,159.41 322.69,159.61 322.77,159.84
             322.77,159.84 325.73,170.02 325.73,170.02
             325.89,170.58 326.04,171.12 326.17,171.66
             326.30,172.19 326.44,172.72 326.56,173.25
             326.66,172.72 326.75,172.19 326.86,171.66
             326.97,171.12 327.10,170.57 327.23,170.00
             327.23,170.00 329.95,159.86 329.95,159.86
             330.04,159.61 330.19,159.41 330.41,159.25
             330.62,159.09 330.88,159.00 331.19,159.00
             331.19,159.00 334.56,159.00 334.56,159.00
             334.56,159.00 328.70,178.00 328.70,178.00
             328.70,178.00 325.14,178.00 325.14,178.00
             324.72,178.00 324.44,177.73 324.28,177.19
             324.28,177.19 320.97,166.20 320.97,166.20
             320.75,165.45 320.58,164.73 320.45,164.02
             320.30,164.76 320.12,165.50 319.91,166.23
             319.91,166.23 316.55,177.19 316.55,177.19
             316.40,177.73 316.08,178.00 315.59,178.00
             315.59,178.00 312.17,178.00 312.17,178.00
             312.17,178.00 306.33,159.00 306.33,159.00 Z
           M 337.20,178.00
           C 337.20,178.00 337.20,159.00 337.20,159.00
             337.20,159.00 339.91,159.00 339.91,159.00
             340.49,159.00 340.87,159.29 341.05,159.88
             341.05,159.88 341.36,161.47 341.36,161.47
             341.72,161.09 342.11,160.76 342.53,160.47
             342.95,160.17 343.38,159.91 343.84,159.69
             344.31,159.46 344.80,159.29 345.33,159.17
             345.86,159.06 346.44,159.00 347.06,159.00
             348.07,159.00 348.96,159.18 349.73,159.53
             350.52,159.88 351.16,160.36 351.69,160.98
             352.22,161.61 352.61,162.36 352.88,163.23
             353.14,164.10 353.28,165.05 353.28,166.09
             353.28,166.09 353.28,178.00 353.28,178.00
             353.28,178.00 348.84,178.00 348.84,178.00
             348.84,178.00 348.84,166.05 348.84,166.05
             348.84,164.90 348.58,164.02 348.06,163.39
             347.55,162.76 346.77,162.44 345.70,162.44
             344.94,162.44 344.22,162.62 343.55,162.98
             342.88,163.35 342.24,163.84 341.64,164.47
             341.64,164.47 341.64,178.00 341.64,178.00
             341.64,178.00 337.20,178.00 337.20,178.00 Z
           M 364.31,152.00
           C 364.31,152.00 368.36,152.00 368.36,152.00
             368.77,152.00 369.12,152.10 369.41,152.30
             369.69,152.50 369.88,152.76 369.97,153.09
             369.97,153.09 374.41,168.67 374.41,168.67
             374.50,169.06 374.59,169.48 374.67,169.94
             374.77,170.39 374.86,170.86 374.97,171.36
             375.06,170.86 375.16,170.39 375.28,169.94
             375.39,169.48 375.52,169.06 375.64,168.67
             375.64,168.67 380.77,153.09 380.77,153.09
             380.86,152.82 381.05,152.57 381.33,152.34
             381.61,152.12 381.95,152.00 382.36,152.00
             382.36,152.00 383.78,152.00 383.78,152.00
             384.20,152.00 384.54,152.11 384.80,152.31
             385.07,152.51 385.27,152.77 385.41,153.09
             385.41,153.09 390.50,168.67 390.50,168.67
             390.75,169.42 390.98,170.28 391.19,171.25
             391.33,170.30 391.50,169.45 391.70,168.67
             391.70,168.67 396.12,153.09 396.12,153.09
             396.20,152.79 396.38,152.54 396.67,152.33
             396.97,152.11 397.33,152.00 397.73,152.00
             397.73,152.00 401.53,152.00 401.53,152.00
             401.53,152.00 393.45,178.00 393.45,178.00
             393.45,178.00 389.08,178.00 389.08,178.00
             389.08,178.00 383.39,160.28 383.39,160.28
             383.30,160.05 383.23,159.81 383.16,159.55
             383.08,159.29 383.01,159.01 382.94,158.72
             382.88,159.01 382.80,159.29 382.72,159.55
             382.64,159.81 382.57,160.05 382.50,160.28
             382.50,160.28 376.77,178.00 376.77,178.00
             376.77,178.00 372.38,178.00 372.38,178.00
             372.38,178.00 364.31,152.00 364.31,152.00 Z
           M 414.28,178.00
           C 413.85,178.00 413.52,177.92 413.30,177.77
             413.07,177.61 412.89,177.30 412.77,176.83
             412.77,176.83 412.36,175.22 412.36,175.22
             411.89,175.68 411.43,176.08 410.98,176.42
             410.55,176.77 410.09,177.06 409.61,177.30
             409.13,177.53 408.61,177.70 408.06,177.83
             407.52,177.95 406.92,178.00 406.27,178.00
             405.48,178.00 404.76,177.90 404.09,177.69
             403.44,177.47 402.87,177.15 402.39,176.72
             401.91,176.29 401.54,175.76 401.27,175.12
             401.00,174.49 400.88,173.75 400.88,172.91
             400.88,172.20 401.05,171.50 401.42,170.81
             401.80,170.12 402.41,169.49 403.25,168.94
             404.10,168.38 405.24,167.91 406.66,167.55
             408.07,167.18 409.84,167.00 411.95,167.00
             411.95,167.00 411.95,165.95 411.95,165.95
             411.95,164.76 411.69,163.87 411.16,163.30
             410.63,162.73 409.88,162.44 408.88,162.44
             408.16,162.44 407.55,162.52 407.08,162.69
             406.61,162.84 406.19,163.03 405.83,163.23
             405.47,163.43 405.14,163.62 404.84,163.78
             404.55,163.94 404.23,164.02 403.88,164.02
             403.56,164.02 403.30,163.94 403.08,163.78
             402.86,163.62 402.69,163.45 402.56,163.23
             402.56,163.23 401.77,161.88 401.77,161.88
             403.89,159.96 406.45,159.00 409.44,159.00
             410.51,159.00 411.47,159.18 412.33,159.55
             413.18,159.90 413.90,160.40 414.48,161.03
             415.08,161.67 415.52,162.43 415.83,163.31
             416.14,164.20 416.30,165.17 416.30,166.22
             416.30,166.22 416.30,178.00 416.30,178.00
             416.30,178.00 414.28,178.00 414.28,178.00 Z
           M 407.62,174.56
           C 408.54,174.56 409.33,174.41 410.00,174.11
             410.66,173.81 411.32,173.34 411.95,172.72
             411.95,172.72 411.95,169.84 411.95,169.84
             410.66,169.84 409.58,169.92 408.70,170.08
             407.83,170.23 407.12,170.42 406.59,170.66
             406.07,170.90 405.70,171.17 405.47,171.48
             405.24,171.80 405.12,172.14 405.12,172.52
             405.12,173.25 405.35,173.77 405.81,174.09
             406.28,174.41 406.88,174.56 407.62,174.56 Z
           M 426.91,183.03
           C 426.78,183.34 426.61,183.58 426.39,183.75
             426.18,183.91 425.86,184.00 425.44,184.00
             425.44,184.00 422.12,184.00 422.12,184.00
             422.12,184.00 425.58,176.52 425.58,176.52
             425.58,176.52 418.11,159.00 418.11,159.00
             418.11,159.00 422.02,159.00 422.02,159.00
             422.36,159.00 422.63,159.09 422.83,159.27
             423.02,159.43 423.18,159.63 423.28,159.86
             423.28,159.86 427.20,169.70 427.20,169.70
             427.44,170.38 427.64,171.05 427.80,171.72
             427.89,171.38 427.99,171.04 428.11,170.70
             428.22,170.36 428.34,170.02 428.47,169.69
             428.47,169.69 432.19,159.86 432.19,159.86
             432.28,159.61 432.44,159.41 432.66,159.25
             432.88,159.09 433.13,159.00 433.41,159.00
             433.41,159.00 436.97,159.00 436.97,159.00
             436.97,159.00 426.91,183.03 426.91,183.03 Z" />
</svg>
